<svg xmlns="http://www.w3.org/2000/svg" viewBox="0 0 800 600" width="800" height="600">
  <defs>
    <!-- Background gradient - warm cozy room -->
    <linearGradient id="bgGrad" x1="0" y1="0" x2="0" y2="1">
      <stop offset="0%" stop-color="#1a1a2e"/>
      <stop offset="40%" stop-color="#16213e"/>
      <stop offset="100%" stop-color="#0f3460"/>
    </linearGradient>

    <!-- Floor gradient -->
    <linearGradient id="floorGrad" x1="0" y1="0" x2="0" y2="1">
      <stop offset="0%" stop-color="#2a1a0e"/>
      <stop offset="100%" stop-color="#1a0f06"/>
    </linearGradient>

    <!-- Screen glow -->
    <radialGradient id="screenGlow" cx="50%" cy="50%" r="60%">
      <stop offset="0%" stop-color="#4a90d9" stop-opacity="0.3"/>
      <stop offset="100%" stop-color="#4a90d9" stop-opacity="0"/>
    </radialGradient>

    <!-- JewTube logo gradient (clin d'oeil YouTube rouge) -->
    <linearGradient id="jewtubeRed" x1="0" y1="0" x2="1" y2="1">
      <stop offset="0%" stop-color="#ff0033"/>
      <stop offset="50%" stop-color="#cc0029"/>
      <stop offset="100%" stop-color="#ff0033"/>
    </linearGradient>

    <!-- Gold accent for Jewish touch -->
    <linearGradient id="goldAccent" x1="0" y1="0" x2="1" y2="1">
      <stop offset="0%" stop-color="#f9ce34"/>
      <stop offset="50%" stop-color="#c9a84c"/>
      <stop offset="100%" stop-color="#f9ce34"/>
    </linearGradient>

    <!-- Tablet/phone screen gradient -->
    <linearGradient id="deviceScreen" x1="0" y1="0" x2="0" y2="1">
      <stop offset="0%" stop-color="#e8f0fe"/>
      <stop offset="100%" stop-color="#d4e4fc"/>
    </linearGradient>

    <!-- Rebbe video thumbnail gradient -->
    <linearGradient id="jemThumb" x1="0" y1="0" x2="0" y2="1">
      <stop offset="0%" stop-color="#1a1a2e"/>
      <stop offset="100%" stop-color="#2d2d5e"/>
    </linearGradient>

    <!-- Soft shadow filter -->
    <filter id="softShadow" x="-20%" y="-20%" width="140%" height="140%">
      <feGaussianBlur in="SourceAlpha" stdDeviation="4"/>
      <feOffset dx="2" dy="3"/>
      <feComponentTransfer>
        <feFuncA type="linear" slope="0.3"/>
      </feComponentTransfer>
      <feMerge>
        <feMergeNode/>
        <feMergeNode in="SourceGraphic"/>
      </feMerge>
    </filter>

    <!-- Glow filter for screens -->
    <filter id="glow">
      <feGaussianBlur stdDeviation="8" result="blur"/>
      <feMerge>
        <feMergeNode in="blur"/>
        <feMergeNode in="SourceGraphic"/>
      </feMerge>
    </filter>

    <!-- Star of David clip path for logo -->
    <clipPath id="starClip">
      <circle cx="0" cy="0" r="14"/>
    </clipPath>
  </defs>

  <!-- ==================== BACKGROUND ==================== -->
  <rect width="800" height="600" fill="url(#bgGrad)"/>

  <!-- Subtle stars in background -->
  <circle cx="50" cy="40" r="1.5" fill="#ffffff" opacity="0.4"/>
  <circle cx="150" cy="80" r="1" fill="#ffffff" opacity="0.3"/>
  <circle cx="680" cy="30" r="1.5" fill="#ffffff" opacity="0.5"/>
  <circle cx="750" cy="90" r="1" fill="#ffffff" opacity="0.3"/>
  <circle cx="400" cy="20" r="1.2" fill="#ffffff" opacity="0.4"/>
  <circle cx="550" cy="55" r="1" fill="#ffffff" opacity="0.35"/>
  <circle cx="300" cy="45" r="1.3" fill="#ffffff" opacity="0.3"/>

  <!-- Floor / carpet -->
  <rect x="0" y="420" width="800" height="180" fill="url(#floorGrad)" rx="0"/>
  <rect x="40" y="420" width="720" height="180" fill="#3a2a1a" opacity="0.3" rx="8"/>

  <!-- Cozy rug pattern -->
  <ellipse cx="400" cy="510" rx="280" ry="60" fill="#4a2a1a" opacity="0.4"/>
  <ellipse cx="400" cy="510" rx="240" ry="48" fill="#5a3a2a" opacity="0.3"/>
  <!-- Rug border ornament -->
  <ellipse cx="400" cy="510" rx="260" ry="54" fill="none" stroke="#c9a84c" stroke-width="1.5" opacity="0.3" stroke-dasharray="8 4"/>

  <!-- Screen glow on ceiling/walls -->
  <ellipse cx="400" cy="200" rx="350" ry="250" fill="url(#screenGlow)"/>

  <!-- ==================== LARGE TV SCREEN (center) ==================== -->
  <g transform="translate(400, 200)" filter="url(#softShadow)">
    <!-- TV frame -->
    <rect x="-180" y="-120" width="360" height="220" rx="8" fill="#111"/>
    <rect x="-170" y="-112" width="340" height="195" rx="4" fill="url(#deviceScreen)"/>

    <!-- ========= JEM VIDEO ON SCREEN ========= -->
    <!-- Video background - Farbrengen scene -->
    <rect x="-170" y="-112" width="340" height="195" rx="4" fill="url(#jemThumb)"/>

    <!-- Stage/podium area -->
    <rect x="-170" y="20" width="340" height="63" fill="#1a1a3a" rx="0"/>

    <!-- Crowd silhouettes (farbrengen audience) - rows of hats -->
    <!-- Back row -->
    <g opacity="0.5">
      <ellipse cx="-120" cy="35" rx="12" ry="6" fill="#111"/>
      <rect x="-130" y="28" width="20" height="4" rx="2" fill="#111"/>
      <ellipse cx="-85" cy="37" rx="12" ry="6" fill="#111"/>
      <rect x="-95" y="30" width="20" height="4" rx="2" fill="#111"/>
      <ellipse cx="-50" cy="34" rx="12" ry="6" fill="#111"/>
      <rect x="-60" y="27" width="20" height="4" rx="2" fill="#111"/>
      <ellipse cx="-15" cy="36" rx="12" ry="6" fill="#111"/>
      <rect x="-25" y="29" width="20" height="4" rx="2" fill="#111"/>
      <ellipse cx="20" cy="35" rx="12" ry="6" fill="#111"/>
      <rect x="10" y="28" width="20" height="4" rx="2" fill="#111"/>
      <ellipse cx="55" cy="37" rx="12" ry="6" fill="#111"/>
      <rect x="45" y="30" width="20" height="4" rx="2" fill="#111"/>
      <ellipse cx="90" cy="34" rx="12" ry="6" fill="#111"/>
      <rect x="80" y="27" width="20" height="4" rx="2" fill="#111"/>
      <ellipse cx="125" cy="36" rx="12" ry="6" fill="#111"/>
      <rect x="115" y="29" width="20" height="4" rx="2" fill="#111"/>
    </g>

    <!-- Front row silhouettes -->
    <g opacity="0.6">
      <ellipse cx="-100" cy="55" rx="14" ry="7" fill="#0a0a1a"/>
      <rect x="-112" y="47" width="24" height="5" rx="2" fill="#0a0a1a"/>
      <ellipse cx="-60" cy="58" rx="14" ry="7" fill="#0a0a1a"/>
      <rect x="-72" y="50" width="24" height="5" rx="2" fill="#0a0a1a"/>
      <ellipse cx="-20" cy="56" rx="14" ry="7" fill="#0a0a1a"/>
      <rect x="-32" y="48" width="24" height="5" rx="2" fill="#0a0a1a"/>
      <ellipse cx="20" cy="57" rx="14" ry="7" fill="#0a0a1a"/>
      <rect x="8" y="49" width="24" height="5" rx="2" fill="#0a0a1a"/>
      <ellipse cx="60" cy="55" rx="14" ry="7" fill="#0a0a1a"/>
      <rect x="48" y="47" width="24" height="5" rx="2" fill="#0a0a1a"/>
      <ellipse cx="100" cy="58" rx="14" ry="7" fill="#0a0a1a"/>
      <rect x="88" y="50" width="24" height="5" rx="2" fill="#0a0a1a"/>
    </g>

    <!-- Rebbe figure at podium (simplified/respectful) -->
    <g transform="translate(0, -30)">
      <!-- Podium/shtender -->
      <rect x="-25" y="10" width="50" height="35" rx="3" fill="#5a3a1a"/>
      <rect x="-30" y="8" width="60" height="6" rx="2" fill="#7a5a3a"/>
      <!-- Sefer on shtender -->
      <rect x="-15" y="12" width="30" height="5" rx="1" fill="#fff" opacity="0.7"/>

      <!-- Figure silhouette (respectful representation) -->
      <ellipse cx="0" cy="-20" rx="14" ry="16" fill="#1a1a3a"/>
      <!-- Hat -->
      <rect x="-18" y="-38" width="36" height="6" rx="3" fill="#111"/>
      <rect x="-12" y="-46" width="24" height="12" rx="4" fill="#111"/>
      <!-- Beard suggestion -->
      <ellipse cx="0" cy="-4" rx="10" ry="10" fill="#ddd" opacity="0.3"/>
      <!-- Body/bekishe -->
      <rect x="-16" y="-5" width="32" height="20" rx="4" fill="#111"/>
    </g>

    <!-- Warm lighting effect on video -->
    <rect x="-170" y="-112" width="340" height="195" rx="4" fill="#f9ce34" opacity="0.05"/>

    <!-- JEM watermark on video -->
    <g transform="translate(130, -95)">
      <rect x="0" y="0" width="32" height="14" rx="2" fill="#fff" opacity="0.8"/>
      <text x="16" y="11" font-family="Arial, sans-serif" font-size="9" font-weight="bold" fill="#1a1a2e" text-anchor="middle">JEM</text>
    </g>

    <!-- Video progress bar -->
    <rect x="-170" y="72" width="340" height="4" fill="#333" rx="2"/>
    <rect x="-170" y="72" width="200" height="4" fill="#ff0033" rx="2"/>
    <circle cx="30" cy="74" r="5" fill="#ff0033"/>

    <!-- Video title overlay -->
    <rect x="-170" y="56" width="340" height="20" fill="#000" opacity="0.5"/>
    <text x="-160" y="70" font-family="Arial, sans-serif" font-size="9" fill="#fff" opacity="0.9">The Rebbe's Farbrengen - Jewish Educational Media</text>

    <!-- TV stand -->
    <rect x="-8" y="100" width="16" height="30" rx="2" fill="#222"/>
    <rect x="-40" y="125" width="80" height="6" rx="3" fill="#222"/>
  </g>

  <!-- ==================== JEWTUBE LOGO (top center) ==================== -->
  <g transform="translate(400, 50)" filter="url(#softShadow)">
    <!-- Logo background pill -->
    <rect x="-110" y="-22" width="220" height="44" rx="22" fill="#111" opacity="0.85"/>

    <!-- Play button (YouTube clin d'oeil) -->
    <g transform="translate(-75, 0)">
      <rect x="-18" y="-13" width="36" height="26" rx="6" fill="url(#jewtubeRed)"/>
      <polygon points="-5,-8 9,0 -5,8" fill="#fff"/>
    </g>

    <!-- "JewTube" text -->
    <text x="2" y="7" font-family="'Arial Black', Arial, sans-serif" font-size="22" font-weight="900" fill="#fff" letter-spacing="-0.5">
      <tspan fill="#fff">Jew</tspan><tspan fill="url(#jewtubeRed)">Tube</tspan>
    </text>

    <!-- Small Star of David accent -->
    <g transform="translate(90, -2)">
      <polygon points="0,-8 2.3,-2.6 8,-2.6 3.5,1 5.5,7 0,3.5 -5.5,7 -3.5,1 -8,-2.6 -2.3,-2.6" fill="url(#goldAccent)" opacity="0.9"/>
    </g>

    <!-- "jewkids.fr" subtitle -->
    <text x="2" y="18" font-family="Arial, sans-serif" font-size="7" fill="#c9a84c" text-anchor="middle" letter-spacing="2" opacity="0.8">jewkids.fr</text>
  </g>

  <!-- ==================== CHILD 1 - Boy with kippah on floor (left) ==================== -->
  <g transform="translate(140, 430)" filter="url(#softShadow)">
    <!-- Body sitting -->
    <ellipse cx="0" cy="25" rx="22" ry="12" fill="#4a6fa5"/>
    <!-- Legs crossed -->
    <ellipse cx="-10" cy="40" rx="16" ry="6" fill="#2a4a7a"/>
    <ellipse cx="10" cy="40" rx="16" ry="6" fill="#2a4a7a"/>
    <!-- Head -->
    <circle cx="0" cy="-5" r="18" fill="#f5d0a9"/>
    <!-- Kippah -->
    <ellipse cx="2" cy="-20" rx="13" ry="7" fill="#1a3a8a"/>
    <!-- Star of David on kippah -->
    <g transform="translate(2, -21)">
      <polygon points="0,-4 1.4,-1.3 4.5,-1.3 2,0.5 3,3.5 0,1.8 -3,3.5 -2,0.5 -4.5,-1.3 -1.4,-1.3" fill="#c9a84c" opacity="0.8" transform="scale(0.7)"/>
    </g>
    <!-- Eyes (looking at screen, wonder) -->
    <circle cx="-6" cy="-8" r="3.5" fill="#fff"/>
    <circle cx="6" cy="-8" r="3.5" fill="#fff"/>
    <circle cx="-4" cy="-8" r="2" fill="#2a1a0a"/>
    <circle cx="8" cy="-8" r="2" fill="#2a1a0a"/>
    <!-- Screen reflection in eyes -->
    <circle cx="-3.5" cy="-9" r="0.8" fill="#4a90d9" opacity="0.6"/>
    <circle cx="8.5" cy="-9" r="0.8" fill="#4a90d9" opacity="0.6"/>
    <!-- Smile -->
    <path d="M-5,0 Q0,6 5,0" fill="none" stroke="#8a5a3a" stroke-width="1.5" stroke-linecap="round"/>
    <!-- Ears -->
    <ellipse cx="-17" cy="-5" rx="4" ry="5" fill="#e8c098"/>
    <ellipse cx="17" cy="-5" rx="4" ry="5" fill="#e8c098"/>
    <!-- Peyot (side curls) -->
    <path d="M-16,0 Q-19,10 -14,18" fill="none" stroke="#5a3a1a" stroke-width="2.5" stroke-linecap="round"/>
    <path d="M16,0 Q19,10 14,18" fill="none" stroke="#5a3a1a" stroke-width="2.5" stroke-linecap="round"/>
    <!-- Arms reaching toward screen -->
    <path d="M-18,15 Q-25,5 -20,-5" fill="none" stroke="#f5d0a9" stroke-width="6" stroke-linecap="round"/>
    <path d="M18,15 Q25,5 20,-5" fill="none" stroke="#f5d0a9" stroke-width="6" stroke-linecap="round"/>
    <!-- Tzitzit strings peeking out -->
    <g opacity="0.6">
      <line x1="-10" y1="35" x2="-12" y2="45" stroke="#fff" stroke-width="1"/>
      <line x1="-8" y1="35" x2="-9" y2="45" stroke="#fff" stroke-width="1"/>
      <line x1="10" y1="35" x2="12" y2="45" stroke="#fff" stroke-width="1"/>
      <line x1="8" y1="35" x2="9" y2="45" stroke="#fff" stroke-width="1"/>
    </g>
  </g>

  <!-- ==================== CHILD 2 - Girl on floor (right) ==================== -->
  <g transform="translate(620, 435)" filter="url(#softShadow)">
    <!-- Body/dress sitting -->
    <ellipse cx="0" cy="25" rx="24" ry="14" fill="#d94f7a"/>
    <!-- Legs -->
    <ellipse cx="-8" cy="42" rx="14" ry="5" fill="#c94068"/>
    <ellipse cx="12" cy="40" rx="14" ry="5" fill="#c94068"/>
    <!-- Head -->
    <circle cx="0" cy="-5" r="18" fill="#f5d0a9"/>
    <!-- Hair (long, dark) -->
    <ellipse cx="0" cy="-12" rx="20" ry="14" fill="#3a1a0a"/>
    <path d="M-18,-5 Q-22,10 -16,25" fill="#3a1a0a"/>
    <path d="M18,-5 Q22,10 16,25" fill="#3a1a0a"/>
    <!-- Hair bow -->
    <g transform="translate(14, -18)">
      <ellipse cx="-5" cy="0" rx="5" ry="3" fill="#f9ce34"/>
      <ellipse cx="5" cy="0" rx="5" ry="3" fill="#f9ce34"/>
      <circle cx="0" cy="0" r="2" fill="#c9a84c"/>
    </g>
    <!-- Eyes (big, looking at screen) -->
    <circle cx="-6" cy="-6" r="4" fill="#fff"/>
    <circle cx="6" cy="-6" r="4" fill="#fff"/>
    <circle cx="-4" cy="-6" r="2.2" fill="#2a1a0a"/>
    <circle cx="4" cy="-6" r="2.2" fill="#2a1a0a"/>
    <!-- Eyelashes -->
    <line x1="-10" y1="-10" x2="-9" y2="-8" stroke="#3a1a0a" stroke-width="1"/>
    <line x1="-7" y1="-11" x2="-7" y2="-9" stroke="#3a1a0a" stroke-width="1"/>
    <line x1="10" y1="-10" x2="9" y2="-8" stroke="#3a1a0a" stroke-width="1"/>
    <line x1="7" y1="-11" x2="7" y2="-9" stroke="#3a1a0a" stroke-width="1"/>
    <!-- Screen reflection in eyes -->
    <circle cx="-3.5" cy="-7" r="0.8" fill="#4a90d9" opacity="0.6"/>
    <circle cx="4.5" cy="-7" r="0.8" fill="#4a90d9" opacity="0.6"/>
    <!-- Happy smile -->
    <path d="M-5,2 Q0,8 5,2" fill="none" stroke="#8a5a3a" stroke-width="1.5" stroke-linecap="round"/>
    <!-- Blush -->
    <ellipse cx="-10" cy="0" rx="4" ry="2.5" fill="#ffaaaa" opacity="0.4"/>
    <ellipse cx="10" cy="0" rx="4" ry="2.5" fill="#ffaaaa" opacity="0.4"/>
    <!-- Holding tablet -->
    <g transform="translate(0, 12)">
      <rect x="-18" y="-12" width="36" height="24" rx="3" fill="#222"/>
      <rect x="-15" y="-10" width="30" height="20" rx="2" fill="url(#deviceScreen)"/>
      <!-- Mini JewTube on tablet -->
      <rect x="-8" y="-4" width="16" height="10" rx="1" fill="#1a1a2e"/>
      <!-- Mini play button -->
      <rect x="-5" y="-1" width="10" height="7" rx="2" fill="#ff0033" opacity="0.8"/>
      <polygon points="-1,-0 3,2.5 -1,5" fill="#fff" transform="translate(0,-1)" opacity="0.9"/>
    </g>
    <!-- Arms holding tablet -->
    <path d="M-20,12 Q-22,8 -18,0" fill="none" stroke="#f5d0a9" stroke-width="6" stroke-linecap="round"/>
    <path d="M20,12 Q22,8 18,0" fill="none" stroke="#f5d0a9" stroke-width="6" stroke-linecap="round"/>
  </g>

  <!-- ==================== CHILD 3 - Small boy with phone (center floor) ==================== -->
  <g transform="translate(370, 470)" filter="url(#softShadow)">
    <!-- Body -->
    <ellipse cx="0" cy="15" rx="16" ry="10" fill="#4aaa6a"/>
    <!-- Legs -->
    <rect x="-14" y="22" width="10" height="16" rx="4" fill="#3a8a5a"/>
    <rect x="4" y="22" width="10" height="16" rx="4" fill="#3a8a5a"/>
    <!-- Head -->
    <circle cx="0" cy="-5" r="15" fill="#deb896"/>
    <!-- Kippah -->
    <ellipse cx="1" cy="-17" rx="11" ry="6" fill="#ff6a00"/>
    <!-- Hair peeking -->
    <path d="M-13,-8 Q-14,-18 -8,-18" fill="#2a1a0a"/>
    <path d="M13,-8 Q14,-18 8,-18" fill="#2a1a0a"/>
    <!-- Big eyes looking down at phone -->
    <circle cx="-5" cy="-5" r="3" fill="#fff"/>
    <circle cx="5" cy="-5" r="3" fill="#fff"/>
    <circle cx="-5" cy="-3.5" r="1.8" fill="#2a1a0a"/>
    <circle cx="5" cy="-3.5" r="1.8" fill="#2a1a0a"/>
    <!-- Mouth (little "o" of fascination) -->
    <ellipse cx="0" cy="3" rx="3" ry="2.5" fill="#8a4a2a" opacity="0.7"/>
    <!-- Ears -->
    <ellipse cx="-14" cy="-5" rx="3" ry="4" fill="#d0a880"/>
    <ellipse cx="14" cy="-5" rx="3" ry="4" fill="#d0a880"/>
    <!-- Phone in hands -->
    <g transform="translate(0, 5)">
      <rect x="-9" y="-6" width="18" height="28" rx="3" fill="#111"/>
      <rect x="-7" y="-4" width="14" height="24" rx="2" fill="#d4e4fc"/>
      <!-- Tiny video on phone -->
      <rect x="-5" y="0" width="10" height="7" rx="1" fill="#1a1a2e"/>
      <polygon points="-1,1 3,3.5 -1,6" fill="#ff0033" opacity="0.8"/>
      <!-- JewTube text tiny -->
      <text x="0" y="14" font-family="Arial, sans-serif" font-size="3.5" fill="#333" text-anchor="middle" font-weight="bold">JewTube</text>
    </g>
    <!-- Arms -->
    <path d="M-14,8 Q-12,12 -9,10" fill="none" stroke="#deb896" stroke-width="5" stroke-linecap="round"/>
    <path d="M14,8 Q12,12 9,10" fill="none" stroke="#deb896" stroke-width="5" stroke-linecap="round"/>
  </g>

  <!-- ==================== ADULT 1 - Father on couch (left) ==================== -->
  <g transform="translate(80, 330)" filter="url(#softShadow)">
    <!-- Couch/chair -->
    <rect x="-45" y="10" width="90" height="50" rx="10" fill="#5a3a2a"/>
    <rect x="-50" y="15" width="100" height="35" rx="8" fill="#6a4a3a"/>
    <!-- Body -->
    <rect x="-20" y="-10" width="40" height="40" rx="8" fill="#2a2a4a"/>
    <!-- Head -->
    <circle cx="0" cy="-30" r="18" fill="#e8c098"/>
    <!-- Beard -->
    <ellipse cx="0" cy="-16" rx="14" ry="14" fill="#2a1a0a"/>
    <ellipse cx="0" cy="-22" rx="16" ry="10" fill="#e8c098"/>
    <!-- Hat (fedora) -->
    <rect x="-22" y="-52" width="44" height="8" rx="4" fill="#111"/>
    <rect x="-14" y="-62" width="28" height="14" rx="5" fill="#111"/>
    <!-- Eyes looking at screen contentedly -->
    <circle cx="-6" cy="-32" r="2.5" fill="#fff"/>
    <circle cx="6" cy="-32" r="2.5" fill="#fff"/>
    <circle cx="-5" cy="-32" r="1.5" fill="#2a1a0a"/>
    <circle cx="7" cy="-32" r="1.5" fill="#2a1a0a"/>
    <!-- Slight smile under beard -->
    <path d="M-6,-20 Q0,-16 6,-20" fill="none" stroke="#fff" stroke-width="1" stroke-linecap="round" opacity="0.4"/>
    <!-- Glasses -->
    <circle cx="-6" cy="-32" r="5" fill="none" stroke="#888" stroke-width="1"/>
    <circle cx="6" cy="-32" r="5" fill="none" stroke="#888" stroke-width="1"/>
    <line x1="-1" y1="-32" x2="1" y2="-32" stroke="#888" stroke-width="1"/>
    <!-- Arms resting -->
    <path d="M-20,0 Q-35,-5 -40,10" fill="none" stroke="#2a2a4a" stroke-width="8" stroke-linecap="round"/>
    <path d="M20,0 Q35,-5 40,10" fill="none" stroke="#2a2a4a" stroke-width="8" stroke-linecap="round"/>
    <!-- Laptop on lap -->
    <g transform="translate(0, 18)">
      <rect x="-25" y="-8" width="50" height="30" rx="3" fill="#aaa"/>
      <rect x="-22" y="-6" width="44" height="25" rx="2" fill="url(#deviceScreen)"/>
      <!-- JewTube on laptop -->
      <rect x="-12" y="0" width="24" height="14" rx="2" fill="#1a1a2e"/>
      <rect x="-6" y="4" width="12" height="7" rx="2" fill="#ff0033" opacity="0.7"/>
      <polygon points="-2,5 4,8.5 -2,12" fill="#fff" opacity="0.8"/>
    </g>
  </g>

  <!-- ==================== ADULT 2 - Mother on couch (right) ==================== -->
  <g transform="translate(700, 340)" filter="url(#softShadow)">
    <!-- Chair -->
    <rect x="-40" y="5" width="80" height="45" rx="8" fill="#5a3a2a"/>
    <rect x="-45" y="10" width="90" height="30" rx="6" fill="#6a4a3a"/>
    <!-- Body -->
    <rect x="-18" y="-15" width="36" height="38" rx="8" fill="#6a3a6a"/>
    <!-- Head -->
    <circle cx="0" cy="-35" r="17" fill="#f5d0a9"/>
    <!-- Hair with head covering (tichel/mitpachat) -->
    <ellipse cx="0" cy="-42" rx="19" ry="14" fill="#c9a84c"/>
    <path d="M-16,-35 Q-20,-50 -10,-52 Q0,-55 10,-52 Q20,-50 16,-35" fill="#c9a84c"/>
    <!-- Hair peeking from tichel -->
    <path d="M-16,-35 Q-18,-30 -15,-28" fill="#3a1a0a"/>
    <path d="M16,-35 Q18,-30 15,-28" fill="#3a1a0a"/>
    <!-- Eyes looking at tablet -->
    <circle cx="-5" cy="-35" r="3" fill="#fff"/>
    <circle cx="5" cy="-35" r="3" fill="#fff"/>
    <circle cx="-4" cy="-34" r="1.8" fill="#2a4a2a"/>
    <circle cx="4" cy="-34" r="1.8" fill="#2a4a2a"/>
    <!-- Warm smile -->
    <path d="M-5,-26 Q0,-22 5,-26" fill="none" stroke="#8a5a3a" stroke-width="1.5" stroke-linecap="round"/>
    <!-- Blush -->
    <ellipse cx="-9" cy="-28" rx="3" ry="2" fill="#ffaaaa" opacity="0.3"/>
    <ellipse cx="9" cy="-28" rx="3" ry="2" fill="#ffaaaa" opacity="0.3"/>
    <!-- Holding tablet -->
    <g transform="translate(-5, 5)">
      <rect x="-20" y="-10" width="40" height="28" rx="3" fill="#333"/>
      <rect x="-17" y="-8" width="34" height="24" rx="2" fill="url(#deviceScreen)"/>
      <!-- JewTube content on tablet -->
      <rect x="-10" y="-2" width="20" height="12" rx="1" fill="#1a1a2e"/>
      <rect x="-5" y="1" width="10" height="7" rx="2" fill="#ff0033" opacity="0.7"/>
      <polygon points="-1,2 3,5 -1,8" fill="#fff" opacity="0.8"/>
    </g>
    <!-- Arms -->
    <path d="M-16,-5 Q-22,0 -25,5" fill="none" stroke="#f5d0a9" stroke-width="6" stroke-linecap="round"/>
    <path d="M16,-5 Q22,0 25,5" fill="none" stroke="#f5d0a9" stroke-width="6" stroke-linecap="round"/>
  </g>

  <!-- ==================== CHILD 4 - Baby/Toddler pointing at TV ==================== -->
  <g transform="translate(280, 460)" filter="url(#softShadow)">
    <!-- Diaper/onesie body -->
    <ellipse cx="0" cy="10" rx="14" ry="10" fill="#fff"/>
    <ellipse cx="0" cy="10" rx="14" ry="10" fill="#aadaff" opacity="0.5"/>
    <!-- Tiny legs -->
    <rect x="-10" y="18" width="8" height="10" rx="4" fill="#f5d0a9"/>
    <rect x="2" y="18" width="8" height="10" rx="4" fill="#f5d0a9"/>
    <!-- Head (bigger proportion for baby) -->
    <circle cx="0" cy="-8" r="14" fill="#f5d0a9"/>
    <!-- Tiny kippah -->
    <ellipse cx="1" cy="-19" rx="8" ry="4" fill="#4a90d9"/>
    <!-- Baby eyes (huge and round) -->
    <circle cx="-5" cy="-9" r="4" fill="#fff"/>
    <circle cx="5" cy="-9" r="4" fill="#fff"/>
    <circle cx="-3.5" cy="-8.5" r="2.5" fill="#2a1a0a"/>
    <circle cx="6.5" cy="-8.5" r="2.5" fill="#2a1a0a"/>
    <!-- Light reflection -->
    <circle cx="-4.5" cy="-10" r="1" fill="#fff"/>
    <circle cx="5.5" cy="-10" r="1" fill="#fff"/>
    <!-- Open mouth (amazed) -->
    <ellipse cx="0" cy="0" rx="3.5" ry="3" fill="#c97a5a"/>
    <!-- Tiny tooth -->
    <rect x="-1.5" y="-0.5" width="3" height="2" rx="0.5" fill="#fff"/>
    <!-- Pointing arm at TV -->
    <path d="M12,0 Q20,-10 35,-25" fill="none" stroke="#f5d0a9" stroke-width="5" stroke-linecap="round"/>
    <!-- Pointing finger -->
    <circle cx="37" cy="-27" r="2.5" fill="#f5d0a9"/>
    <!-- Other arm -->
    <path d="M-12,0 Q-16,5 -14,10" fill="none" stroke="#f5d0a9" stroke-width="5" stroke-linecap="round"/>
  </g>

  <!-- ==================== DECORATIVE ELEMENTS ==================== -->

  <!-- Menorah silhouette on shelf (left wall) -->
  <g transform="translate(40, 140)" opacity="0.25">
    <!-- Shelf -->
    <rect x="-25" y="35" width="50" height="4" rx="1" fill="#c9a84c"/>
    <!-- Menorah -->
    <rect x="-2" y="5" width="4" height="30" rx="1" fill="#c9a84c"/>
    <rect x="-20" y="0" width="40" height="3" rx="1" fill="#c9a84c"/>
    <!-- Branches -->
    <line x1="-18" y1="2" x2="-18" y2="-8" stroke="#c9a84c" stroke-width="2.5"/>
    <line x1="-12" y1="2" x2="-12" y2="-12" stroke="#c9a84c" stroke-width="2.5"/>
    <line x1="-6" y1="2" x2="-6" y2="-15" stroke="#c9a84c" stroke-width="2.5"/>
    <line x1="0" y1="2" x2="0" y2="-18" stroke="#c9a84c" stroke-width="2.5"/>
    <line x1="6" y1="2" x2="6" y2="-15" stroke="#c9a84c" stroke-width="2.5"/>
    <line x1="12" y1="2" x2="12" y2="-12" stroke="#c9a84c" stroke-width="2.5"/>
    <line x1="18" y1="2" x2="18" y2="-8" stroke="#c9a84c" stroke-width="2.5"/>
    <!-- Shamash -->
    <line x1="0" y1="0" x2="0" y2="-20" stroke="#c9a84c" stroke-width="3"/>
  </g>

  <!-- Sefarim/books on shelf (right wall) -->
  <g transform="translate(730, 150)" opacity="0.2">
    <rect x="-30" y="30" width="60" height="4" rx="1" fill="#8a6a4a"/>
    <rect x="-25" y="5" width="8" height="25" rx="1" fill="#c9a84c"/>
    <rect x="-15" y="8" width="7" height="22" rx="1" fill="#8a4a2a"/>
    <rect x="-6" y="3" width="9" height="27" rx="1" fill="#3a5a8a"/>
    <rect x="5" y="6" width="7" height="24" rx="1" fill="#6a3a3a"/>
    <rect x="14" y="10" width="8" height="20" rx="1" fill="#2a6a4a"/>
    <!-- Hebrew letters on spine -->
    <text x="-21" y="22" font-family="'Noto Serif Hebrew', serif" font-size="6" fill="#1a1a0a" opacity="0.5">ש״ס</text>
  </g>

  <!-- Floating hearts/engagement icons around screens -->
  <g opacity="0.6">
    <!-- Heart 1 -->
    <g transform="translate(480, 150)">
      <path d="M0,-4 C-2,-8 -7,-8 -7,-4 C-7,0 0,5 0,5 C0,5 7,0 7,-4 C7,-8 2,-8 0,-4Z" fill="#ff4466" opacity="0.7"/>
    </g>
    <!-- Heart 2 -->
    <g transform="translate(310, 160)">
      <path d="M0,-3 C-1.5,-6 -5,-6 -5,-3 C-5,0 0,4 0,4 C0,4 5,0 5,-3 C5,-6 1.5,-6 0,-3Z" fill="#ff6688" opacity="0.5"/>
    </g>
    <!-- Like thumb -->
    <g transform="translate(520, 170)" opacity="0.5">
      <text font-size="14">👍</text>
    </g>
  </g>

  <!-- ==================== WIFI/CONNECTION WAVES from TV ==================== -->
  <g transform="translate(400, 130)" opacity="0.15">
    <path d="M-60,0 Q-30,-20 0,-20 Q30,-20 60,0" fill="none" stroke="#4a90d9" stroke-width="2"/>
    <path d="M-45,5 Q-22,-10 0,-10 Q22,-10 45,5" fill="none" stroke="#4a90d9" stroke-width="2"/>
    <path d="M-30,10 Q-15,0 0,0 Q15,0 30,10" fill="none" stroke="#4a90d9" stroke-width="2"/>
  </g>

  <!-- ==================== BOTTOM BANNER ==================== -->
  <g transform="translate(400, 580)">
    <rect x="-200" y="-14" width="400" height="28" rx="14" fill="#111" opacity="0.7"/>
    <text x="0" y="5" font-family="'Arial', sans-serif" font-size="12" fill="#c9a84c" text-anchor="middle" font-weight="bold" letter-spacing="1">
      ✡ Regardez en famille sur JewTube · jewkids.fr ✡
    </text>
  </g>

  <!-- ב״ה in top right corner -->
  <text x="775" y="22" font-family="'Noto Serif Hebrew', serif" font-size="14" fill="#c9a84c" text-anchor="end" opacity="0.6">ב״ה</text>
</svg>